<svg width="38" height="38" viewBox="0 0 38 38" fill="none" xmlns="http://www.w3.org/2000/svg">
<g clip-path="url(#clip0_190_42183)">
<rect x="3" y="3" width="32" height="32" rx="16" fill="#308F6A"/>
<path d="M29.0508 31.7038C27.5635 29.1325 25.2715 27.2888 22.5967 26.4148C23.9198 25.6271 24.9477 24.427 25.5227 22.9986C26.0977 21.5701 26.1878 19.9925 25.7794 18.5079C25.3709 17.0233 24.4864 15.7138 23.2617 14.7805C22.037 13.8472 20.5398 13.3418 19 13.3418C17.4603 13.3418 15.9631 13.8472 14.7383 14.7805C13.5136 15.7138 12.6291 17.0233 12.2207 18.5079C11.8122 19.9925 11.9024 21.5701 12.4774 22.9986C13.0523 24.427 14.0803 25.6271 15.4034 26.4148C12.7286 27.2878 10.4366 29.1316 8.94925 31.7038C8.89471 31.7928 8.85853 31.8917 8.84286 31.9949C8.82718 32.098 8.83232 32.2032 8.85797 32.3044C8.88362 32.4055 8.92927 32.5005 8.99222 32.5836C9.05516 32.6668 9.13413 32.7366 9.22447 32.7888C9.31481 32.841 9.41469 32.8745 9.51821 32.8875C9.62173 32.9004 9.72679 32.8925 9.8272 32.8642C9.92762 32.8359 10.0213 32.7878 10.1029 32.7227C10.1844 32.6575 10.252 32.5768 10.3018 32.4851C12.1416 29.3054 15.3936 27.407 19 27.407C22.6065 27.407 25.8584 29.3054 27.6983 32.4851C27.7481 32.5768 27.8157 32.6575 27.8972 32.7227C27.9787 32.7878 28.0725 32.8359 28.1729 32.8642C28.2733 32.8925 28.3783 32.9004 28.4819 32.8875C28.5854 32.8745 28.6853 32.841 28.7756 32.7888C28.8659 32.7366 28.9449 32.6668 29.0079 32.5836C29.0708 32.5005 29.1164 32.4055 29.1421 32.3044C29.1678 32.2032 29.1729 32.098 29.1572 31.9949C29.1415 31.8917 29.1054 31.7928 29.0508 31.7038ZM13.5313 20.3757C13.5313 19.2941 13.852 18.2368 14.4529 17.3374C15.0539 16.4381 15.908 15.7372 16.9072 15.3232C17.9065 14.9093 19.0061 14.801 20.0669 15.012C21.1278 15.223 22.1022 15.7439 22.867 16.5087C23.6318 17.2735 24.1527 18.248 24.3637 19.3088C24.5747 20.3696 24.4664 21.4692 24.0525 22.4685C23.6386 23.4678 22.9376 24.3219 22.0383 24.9228C21.139 25.5237 20.0817 25.8445 19 25.8445C17.5501 25.8429 16.16 25.2662 15.1348 24.241C14.1095 23.2157 13.5328 21.8256 13.5313 20.3757Z" fill="#40B185"/>
</g>
<rect x="1.66667" y="1.66667" width="34.6667" height="34.6667" rx="17.3333" stroke="#E2E8F0" stroke-width="2.66667"/>
<defs>
<clipPath id="clip0_190_42183">
<rect x="3" y="3" width="32" height="32" rx="16" fill="white"/>
</clipPath>
</defs>
</svg>
